<svg width="40" height="35" viewBox="0 0 40 35" fill="none" xmlns="http://www.w3.org/2000/svg">
<path d="M20 21.2784C22.7614 21.2784 25 19.3731 25 17.0228C25 14.6724 22.7614 12.7671 20 12.7671C17.2386 12.7671 15 14.6724 15 17.0228C15 19.3731 17.2386 21.2784 20 21.2784Z" fill="white"/>
<path d="M26.875 3.72363H13.125C10.8044 3.72363 8.57876 4.50827 6.93782 5.90493C5.29687 7.30159 4.375 9.19587 4.375 11.171V22.8741C4.375 24.8493 5.29687 26.7436 6.93782 28.1403C8.57876 29.5369 10.8044 30.3216 13.125 30.3216H26.875C29.1956 30.3216 31.4212 29.5369 33.0622 28.1403C34.7031 26.7436 35.625 24.8493 35.625 22.8741V11.171C35.625 9.19587 34.7031 7.30159 33.0622 5.90493C31.4212 4.50827 29.1956 3.72363 26.875 3.72363ZM20 23.4061C18.5166 23.4061 17.0666 23.0317 15.8332 22.3303C14.5999 21.6288 13.6386 20.6319 13.0709 19.4655C12.5032 18.299 12.3547 17.0155 12.6441 15.7772C12.9335 14.539 13.6478 13.4015 14.6967 12.5088C15.7456 11.616 17.082 11.0081 18.5368 10.7617C19.9917 10.5154 21.4997 10.6419 22.8701 11.125C24.2406 11.6082 25.4119 12.4263 26.236 13.4761C27.0601 14.5259 27.5 15.7601 27.5 17.0226C27.5 18.7156 26.7098 20.3393 25.3033 21.5364C23.8968 22.7335 21.9891 23.4061 20 23.4061ZM28.125 11.703C27.7542 11.703 27.3916 11.6094 27.0833 11.4341C26.775 11.2587 26.5346 11.0095 26.3927 10.7178C26.2508 10.4262 26.2137 10.1054 26.286 9.79579C26.3584 9.48622 26.537 9.20187 26.7992 8.97868C27.0614 8.75549 27.3955 8.6035 27.7592 8.54192C28.1229 8.48034 28.4999 8.51195 28.8425 8.63274C29.1851 8.75352 29.478 8.95807 29.684 9.22051C29.89 9.48295 30 9.7915 30 10.1071C30 10.5304 29.8025 10.9363 29.4508 11.2356C29.0992 11.5349 28.6223 11.703 28.125 11.703Z" fill="white"/>
</svg>
