<svg width="40" height="35" viewBox="0 0 40 35" fill="none" xmlns="http://www.w3.org/2000/svg">
<path d="M33.125 3.72363H6.875C6.21196 3.72363 5.57607 3.94781 5.10723 4.34686C4.63839 4.74591 4.375 5.28713 4.375 5.85147V28.1937C4.375 28.7581 4.63839 29.2993 5.10723 29.6983C5.57607 30.0974 6.21196 30.3216 6.875 30.3216H33.125C33.788 30.3216 34.4239 30.0974 34.8928 29.6983C35.3616 29.2993 35.625 28.7581 35.625 28.1937V5.85147C35.625 5.28713 35.3616 4.74591 34.8928 4.34686C34.4239 3.94781 33.788 3.72363 33.125 3.72363ZM15 23.4061C15 23.6883 14.8683 23.9589 14.6339 24.1584C14.3995 24.3579 14.0815 24.47 13.75 24.47C13.4185 24.47 13.1005 24.3579 12.8661 24.1584C12.6317 23.9589 12.5 23.6883 12.5 23.4061V14.8948C12.5 14.6126 12.6317 14.342 12.8661 14.1425C13.1005 13.9429 13.4185 13.8308 13.75 13.8308C14.0815 13.8308 14.3995 13.9429 14.6339 14.1425C14.8683 14.342 15 14.6126 15 14.8948V23.4061ZM13.75 12.235C13.3792 12.235 13.0166 12.1414 12.7083 11.966C12.4 11.7907 12.1596 11.5414 12.0177 11.2498C11.8758 10.9582 11.8387 10.6373 11.911 10.3278C11.9834 10.0182 12.162 9.73382 12.4242 9.51064C12.6864 9.28745 13.0205 9.13546 13.3842 9.07388C13.7479 9.0123 14.1249 9.04391 14.4675 9.16469C14.8101 9.28548 15.103 9.49003 15.309 9.75247C15.515 10.0149 15.625 10.3235 15.625 10.6391C15.625 11.0623 15.4275 11.4683 15.0758 11.7675C14.7242 12.0668 14.2473 12.235 13.75 12.235ZM28.75 23.4061C28.75 23.6883 28.6183 23.9589 28.3839 24.1584C28.1495 24.3579 27.8315 24.47 27.5 24.47C27.1685 24.47 26.8505 24.3579 26.6161 24.1584C26.3817 23.9589 26.25 23.6883 26.25 23.4061V18.6185C26.25 17.913 25.9208 17.2365 25.3347 16.7377C24.7487 16.2389 23.9538 15.9587 23.125 15.9587C22.2962 15.9587 21.5013 16.2389 20.9153 16.7377C20.3292 17.2365 20 17.913 20 18.6185V23.4061C20 23.6883 19.8683 23.9589 19.6339 24.1584C19.3995 24.3579 19.0815 24.47 18.75 24.47C18.4185 24.47 18.1005 24.3579 17.8661 24.1584C17.6317 23.9589 17.5 23.6883 17.5 23.4061V14.8948C17.4991 14.6329 17.6117 14.38 17.8163 14.1844C18.0208 13.9889 18.3029 13.8643 18.6085 13.8347C18.9142 13.805 19.2219 13.8724 19.4729 14.0238C19.7238 14.1752 19.9004 14.4001 19.9688 14.6554C20.8146 14.1674 21.8006 13.8847 22.8209 13.8377C23.8412 13.7906 24.8574 13.9811 25.7601 14.3885C26.6629 14.7959 27.4182 15.405 27.945 16.1502C28.4717 16.8955 28.75 17.7488 28.75 18.6185V23.4061Z" fill="white"/>
</svg>
