<svg width="43" height="35" viewBox="0 0 43 35" fill="none" xmlns="http://www.w3.org/2000/svg">
<path d="M41.1865 10.3332L36.1241 14.3362C35.1183 23.6321 25.2282 30.8535 13.4104 30.8535C10.9798 30.8535 8.96823 30.5476 7.44281 29.9491C6.21912 29.4571 5.71623 28.9384 5.58213 28.7788C5.47117 28.6451 5.39968 28.4933 5.37297 28.3346C5.34626 28.1759 5.36502 28.0145 5.42785 27.8624C5.49069 27.7103 5.59599 27.5714 5.73589 27.4561C5.87579 27.3407 6.0467 27.2519 6.23588 27.1962C6.26941 27.1829 10.2254 25.986 12.7902 23.6853C11.1996 22.7868 9.8016 21.6912 8.64974 20.4404C6.35322 17.9668 3.9226 13.6712 5.38097 7.26111C5.42682 7.07054 5.53668 6.89334 5.69896 6.74821C5.86124 6.60307 6.06991 6.49541 6.30293 6.43657C6.5367 6.37585 6.78701 6.3673 7.02649 6.41186C7.26597 6.45643 7.48538 6.55239 7.66073 6.68925C7.71102 6.74245 13.2931 11.1045 20.1156 12.5142V11.703C20.1221 10.8594 20.3381 10.0252 20.7511 9.24785C21.164 8.47053 21.766 7.76535 22.5225 7.17258C23.279 6.57982 24.1752 6.11107 25.1601 5.79311C26.1449 5.47515 27.1991 5.3142 28.2623 5.31946C29.6578 5.33525 31.0244 5.63755 32.2288 6.1969C33.4333 6.75625 34.4345 7.55358 35.1351 8.51121H40.231C40.4958 8.51055 40.7549 8.57209 40.9756 8.68805C41.1963 8.80402 41.3689 8.96923 41.4715 9.16286C41.5681 9.35938 41.5926 9.57358 41.5422 9.78069C41.4917 9.98779 41.3684 10.1793 41.1865 10.3332Z" fill="white"/>
</svg>
