<svg width="32" height="36" viewBox="0 0 32 36" fill="none" xmlns="http://www.w3.org/2000/svg">
<path d="M15.8753 17.2763C18.1913 17.2763 20.4123 16.3662 22.05 14.7463C23.6876 13.1263 24.6076 10.9291 24.6076 8.63816C24.6076 6.34718 23.6876 4.15003 22.05 2.53006C20.4123 0.910089 18.1913 0 15.8753 0C13.5594 0 11.3383 0.910089 9.70064 2.53006C8.06302 4.15003 7.14301 6.34718 7.14301 8.63816C7.14301 10.9291 8.06302 13.1263 9.70064 14.7463C11.3383 16.3662 13.5594 17.2763 15.8753 17.2763V17.2763ZM15.8753 21.5954C7.12555 21.5954 0 27.4002 0 34.5526C0 35.0364 0.384221 35.4164 0.873229 35.4164H30.8774C31.3664 35.4164 31.7506 35.0364 31.7506 34.5526C31.7506 27.4002 24.6251 21.5954 15.8753 21.5954Z" fill="white"/>
</svg>
